<?xml version="1.0" encoding="UTF-8"?>
<!-- Generated by jsxcad -->
<!DOCTYPE svg PUBLIC "-//W3C//DTD SVG 1.1 Tiny//EN" "http://www.w3.org/Graphics/SVG/1.1/DTD/svg11-tiny.dtd">
<svg baseProfile="tiny" height="6.1790389090000275mm" width="6.1895105812818665mm" viewBox="0 0 6.1895105812818665 6.1790389090000275" version="1.1" stroke="black" stroke-width=".1" fill="none" xmlns="http://www.w3.org/2000/svg">
<path fill="#000000" stroke="#000000" d="M3.09476 6.18952 L2.37985 6.10596 L1.70348 5.85978 L1.10211 5.46426 L0.60817 4.94071 L0.24829 4.31737 L0.04185 3.62783 L0 2.90927 L0.12499 2.20043 L0.41008 1.53952 L0.8399 0.96217 L1.39128 0.49951 L2.03449 0.17647 L2.73487 0.01048 L3.45464 0.01048 L4.15502 0.17647 L4.79823 0.49951 L5.34961 0.96217 L5.77943 1.53952 L6.06452 2.20043 L6.18951 2.90927 L6.14766 3.62783 L5.94123 4.31737 L5.58134 4.94071 L5.0874 5.46426 L4.48603 5.85978 L3.80966 6.10596 z"/>
<path fill="#000000" stroke="#000000" d="M3.094759873628831 6.189518918825554 L3.094759873628831 6.189518918825554 L3.8096598936972086 6.105959090521494 L3.8096598936972086 6.105959090521494 z"/>
<path fill="#000000" stroke="#000000" d="M3.8096600602622672 6.105960165569218 L3.8096600602622672 6.105960165569218 L4.486030527134775 5.859781448290891 L4.486030527134775 5.859781448290891 z"/>
<path fill="#000000" stroke="#000000" d="M5.941224716330783 4.317368418173276 L5.941224716330783 4.317368418173276 L6.1476590522452685 3.6278297162608593 L6.1476590522452685 3.6278297162608593 z"/>
<path fill="#000000" stroke="#000000" d="M5.087397785516502 5.4642566330414155 L5.087397785516502 5.4642566330414155 L4.486031123768376 5.859781708606807 L4.486031123768376 5.859781708606807 z"/>
<path fill="#000000" stroke="#000000" d="M5.581338362591162 4.940709054641567 L5.581338362591162 4.940709054641567 L5.941225000188657 4.317367113357576 L5.941225000188657 4.317367113357576 z"/>
<path fill="#000000" stroke="#000000" d="M5.581339055812738 4.940709109205262 L5.581339055812738 4.940709109205262 L5.087396966077296 5.464257137641557 L5.087396966077296 5.464257137641557 z"/>
<path fill="#000000" stroke="#000000" d="M5.779432862160757 1.5395178692002638 L5.779432862160757 1.5395178692002638 L5.3496121224350235 0.9621684199056686 L5.3496121224350235 0.9621684199056686 z"/>
<path fill="#000000" stroke="#000000" d="M6.189510607462077 2.9092700353806364 L6.189510607462077 2.9092700353806364 L6.147659257910915 3.6278299567782324 L6.147659257910915 3.6278299567782324 z"/>
<path fill="#000000" stroke="#000000" d="M6.064522549055754 2.200428900444678 L6.064522549055754 2.200428900444678 L5.7794336065997305 1.5395184442647354 L5.7794336065997305 1.5395184442647354 z"/>
<path fill="#000000" stroke="#000000" d="M6.064522791973661 2.2004295076997136 L6.064522791973661 2.2004295076997136 L6.1895104808351284 2.909269915215793 L6.1895104808351284 2.909269915215793 z"/>
<path fill="#000000" stroke="#000000" d="M4.798232649676128 0.49950684223895564 L4.798232649676128 0.49950684223895564 L5.349611293281438 0.9621684587272001 L5.349611293281438 0.9621684587272001 z"/>
<path fill="#000000" stroke="#000000" d="M4.798231736251439 0.4995065428391446 L4.798231736251439 0.4995065428391446 L4.155018609273069 0.17647276916499305 L4.155018609273069 0.17647276916499305 z"/>
<path fill="#000000" stroke="#000000" d="M2.73487 0.010480545499990335 L2.73487 0.010480545499990335 L3.45464 0.010480545499990335 L3.45464 0.010480545499990335 z"/>
<path fill="#000000" stroke="#000000" d="M3.454640054395401 0.010479770487755537 L3.454640054395401 0.010479770487755537 L4.155019356670994 0.17647271441851406 L4.155019356670994 0.17647271441851406 z"/>
<path fill="#000000" stroke="#000000" d="M2.034490674243714 0.17647284485792653 L2.034490674243714 0.17647284485792653 L2.7348699765193074 0.010479900927168231 L2.7348699765193074 0.010479900927168231 z"/>
<path fill="#000000" stroke="#000000" d="M1.3912783808307636 0.4995067759689777 L1.3912783808307636 0.4995067759689777 L2.0344915078091326 0.17647300229482618 L2.0344915078091326 0.17647300229482618 z"/>
<path fill="#000000" stroke="#000000" d="M0.8398989468902267 0.9621687449526444 L0.8398989468902267 0.9621687449526444 L1.391277590495537 0.4995071284644 L1.391277590495537 0.4995071284644 z"/>
<path fill="#000000" stroke="#000000" d="M0.839898251562668 0.9621686983366341 L0.839898251562668 0.9621686983366341 L0.41007751183693497 1.53951814763123 L0.41007751183693497 1.53951814763123 z"/>
<path fill="#000000" stroke="#000000" d="M-2.8145421488011945e-8 2.9092700016392836 L-2.8145421488011945e-8 2.9092700016392836 L0.04185132140574158 3.6278299230368796 L0.04185132140574158 3.6278299230368796 z"/>
<path fill="#000000" stroke="#000000" d="M0.12498777178041227 2.2004296071047675 L0.12498777178041227 2.2004296071047675 L8.291894444485199e-8 2.9092700146208466 L8.291894444485199e-8 2.9092700146208466 z"/>
<path fill="#000000" stroke="#000000" d="M0.1249879410350888 2.200429111849232 L0.1249879410350888 2.200429111849232 L0.41007688349111215 1.5395186556692897 L0.41007688349111215 1.5395186556692897 z"/>
<path fill="#000000" stroke="#000000" d="M0.24828663969805004 4.317371006008364 L0.24828663969805004 4.317371006008364 L0.04185148122262114 3.6278295565510574 L0.04185148122262114 3.6278295565510574 z"/>
<path fill="#000000" stroke="#000000" d="M0.24828793577274183 4.317371191782163 L0.24828793577274183 4.317371191782163 L0.6081720733702382 4.940708802939135 L0.6081720733702382 4.940708802939135 z"/>
<path fill="#000000" stroke="#000000" d="M1.1021133414629034 5.464256847492341 L1.1021133414629034 5.464256847492341 L0.608171251727462 4.940708819056047 L0.608171251727462 4.940708819056047 z"/>
<path fill="#000000" stroke="#000000" d="M1.1021123900074377 5.46425636617023 L1.1021123900074377 5.46425636617023 L1.7034790517555647 5.85978144173562 L1.7034790517555647 5.85978144173562 z"/>
<path fill="#000000" stroke="#000000" d="M2.3798500077347935 6.105959978748827 L2.3798500077347935 6.105959978748827 L1.7034795408622863 5.8597812614705 L1.7034795408622863 5.8597812614705 z"/>
<path fill="#000000" stroke="#000000" d="M2.379850114137055 6.105959023495083 L2.379850114137055 6.105959023495083 L3.0947599994297854 6.189520004878496 L3.0947599994297854 6.189520004878496 z"/>
<path fill="#000000" stroke="#000000" d="M2.37985 6.10596 L3.09476 6.18952 L3.80966 6.10596 L4.48603 5.85978 L5.0874 5.46426 L5.58134 4.94071 L5.94123 4.31737 L6.14766 3.62783 L6.18951 2.90927 L6.06452 2.20043 L5.77943 1.53952 L5.34961 0.96217 L4.79823 0.49951 L4.15502 0.17647 L3.45464 0.01048 L2.73487 0.01048 L2.03449 0.17647 L1.39128 0.49951 L0.8399 0.96217 L0.41008 1.53952 L0.12499 2.20043 L0 2.90927 L0.04185 3.62783 L0.24829 4.31737 L0.60817 4.94071 L1.10211 5.46426 L1.70348 5.85978 z"/>
<path fill="#000000" stroke="#000000" d="M2.38297 4.68822 L1.79425 4.2605 L1.43041 3.6303 L1.35434 2.90659 L1.57921 2.21452 L2.06613 1.67374 L2.73091 1.37776 L3.4586 1.37776 L4.12338 1.67374 L4.6103 2.21452 L4.83517 2.90659 L4.7591 3.6303 L4.39526 4.2605 L3.80654 4.68822 L3.09476 4.83952 z"/>
<path fill="#000000" stroke="#000000" d="M3.80654101091853 4.688224755998598 L3.80654101091853 4.688224755998598 L3.0947596854899286 4.8395185203461875 L3.0947596854899286 4.8395185203461875 z"/>
<path fill="#000000" stroke="#000000" d="M2.38296901420869 4.688224637784299 L2.38296901420869 4.688224637784299 L3.0947599073647263 4.839520435814775 L3.0947599073647263 4.839520435814775 z"/>
<path fill="#000000" stroke="#000000" d="M4.7591041234433815 3.6303004333909765 L4.7591041234433815 3.6303004333909765 L4.8351690972214 2.90658990511423 L4.8351690972214 2.90658990511423 z"/>
<path fill="#000000" stroke="#000000" d="M4.395258221500058 4.260498973182483 L4.395258221500058 4.260498973182483 L4.759102851870405 3.630301646528301 L4.759102851870405 3.630301646528301 z"/>
<path fill="#000000" stroke="#000000" d="M4.39525862878459 4.260498112683945 L4.39525862878459 4.260498112683945 L3.806543444547041 4.688224741012159 L3.806543444547041 4.688224741012159 z"/>
<path fill="#000000" stroke="#000000" d="M4.1233798329442255 1.6737401504176943 L4.1233798329442255 1.6737401504176943 L4.610300108426914 2.2145199023719666 L4.610300108426914 2.2145199023719666 z"/>
<path fill="#000000" stroke="#000000" d="M4.610299893634246 2.2145200345603326 L4.610299893634246 2.2145200345603326 L4.835167366743678 2.906590855596966 L4.835167366743678 2.906590855596966 z"/>
<path fill="#000000" stroke="#000000" d="M3.4585996800890335 1.3777607185318062 L3.4585996800890335 1.3777607185318062 L4.123380006794246 1.6737399847398726 L4.123380006794246 1.6737399847398726 z"/>
<path fill="#000000" stroke="#000000" d="M2.06613008936994 1.6737402007281759 L2.06613008936994 1.6737402007281759 L2.730910416075153 1.3777609345201094 L2.730910416075153 1.3777609345201094 z"/>
<path fill="#000000" stroke="#000000" d="M2.73091 1.3777611985414566 L2.73091 1.3777611985414566 L3.4586 1.3777611985414566 L3.4586 1.3777611985414566 z"/>
<path fill="#000000" stroke="#000000" d="M1.3543431590306945 2.9065910264314403 L1.3543431590306945 2.9065910264314403 L1.5792106321401265 2.2145202053948068 L1.5792106321401265 2.2145202053948068 z"/>
<path fill="#000000" stroke="#000000" d="M1.5792102125942684 2.2145201914207386 L1.5792102125942684 2.2145201914207386 L2.0661304880769573 1.6737404394664661 L2.0661304880769573 1.6737404394664661 z"/>
<path fill="#000000" stroke="#000000" d="M1.7942522144613207 4.26049872148004 L1.7942522144613207 4.26049872148004 L1.4304075840909736 3.6303013948258576 L1.4304075840909736 3.6303013948258576 z"/>
<path fill="#000000" stroke="#000000" d="M1.4304064514872938 3.6303003729633816 L1.4304064514872938 3.6303003729633816 L1.3543414777092748 2.906589844686635 L1.3543414777092748 2.906589844686635 z"/>
<path fill="#000000" stroke="#000000" d="M1.7942515720433616 4.26049783626799 L1.7942515720433616 4.26049783626799 L2.3829667562809105 4.688224464596204 L2.3829667562809105 4.688224464596204 z"/>
<path fill="#000000" stroke="#000000" d="M1.79425 4.2605 L2.38297 4.68822 L3.09476 4.83952 L3.80654 4.68822 L4.39526 4.2605 L4.7591 3.6303 L4.83517 2.90659 L4.6103 2.21452 L4.12338 1.67374 L3.4586 1.37776 L2.73091 1.37776 L2.06613 1.67374 L1.57921 2.21452 L1.35434 2.90659 L1.43041 3.6303 z"/>
</svg>