<?xml version="1.0" encoding="UTF-8"?>
<!-- Generated by jsxcad -->
<!DOCTYPE svg PUBLIC "-//W3C//DTD SVG 1.1 Tiny//EN" "http://www.w3.org/Graphics/SVG/1.1/DTD/svg11-tiny.dtd">
<svg baseProfile="tiny" height="6.0000000000000036mm" width="5.956253051757816mm" viewBox="0 0 5.956253051757816 6.0000000000000036" version="1.1" stroke="black" stroke-width=".1" fill="none" xmlns="http://www.w3.org/2000/svg">
<path fill="#000000" stroke="#000000" d="M1.58396 5.65637 L0.98876 5.24553 L0.50917 4.70419 L0.17308 4.06381 L0 3.36161 L0 2.63839 L0.17308 1.93619 L0.50917 1.29581 L0.98876 0.75447 L1.58396 0.34363 L2.26018 0.08717 L2.97813 0 L3.69607 0.08717 L4.3723 0.34363 L4.96749 0.75447 L5.44708 1.29581 L5.78318 1.93619 L5.95625 2.63839 L5.95625 3.36161 L5.78318 4.06381 L5.44708 4.70419 L4.96749 5.24553 L4.3723 5.65637 L3.69607 5.91283 L2.97813 6 L2.26018 5.91283 z"/>
<path fill="#000000" stroke="#000000" d="M3.696069494429358 5.912825836256155 L3.696069494429358 5.912825836256155 L2.978129949524058 5.999999584293718 L2.978129949524058 5.999999584293718 z"/>
<path fill="#000000" stroke="#000000" d="M2.260180549910015 5.912825471089004 L2.260180549910015 5.912825471089004 L2.9781299495240576 6.0000004157062845 L2.9781299495240576 6.0000004157062845 z"/>
<path fill="#000000" stroke="#000000" d="M4.967492511418302 5.24553363841794 L4.967492511418302 5.24553363841794 L4.372297812855521 5.656366831373849 L4.372297812855521 5.656366831373849 z"/>
<path fill="#000000" stroke="#000000" d="M4.372298851533371 5.65636697174165 L4.372298851533371 5.65636697174165 L3.696068901054517 5.912827102318212 L3.696068901054517 5.912827102318212 z"/>
<path fill="#000000" stroke="#000000" d="M5.783178169526412 4.0638090392936705 L5.783178169526412 4.0638090392936705 L5.447080334068384 4.704190175332555 L5.447080334068384 4.704190175332555 z"/>
<path fill="#000000" stroke="#000000" d="M5.447081085993772 4.704190962106618 L5.447081085993772 4.704190962106618 L4.967493643183227 5.245533227578999 L4.967493643183227 5.245533227578999 z"/>
<path fill="#000000" stroke="#000000" d="M5.956252889750564 3.361610712259281 L5.956252889750564 3.361610712259281 L5.783176581379834 4.0638091573861175 L5.783176581379834 4.0638091573861175 z"/>
<path fill="#000000" stroke="#000000" d="M5.956253051757814 2.63839 L5.956253051757814 2.63839 L5.956253051757814 3.36161 L5.956253051757814 3.36161 z"/>
<path fill="#000000" stroke="#000000" d="M5.956252889750563 2.6383892877407185 L5.956252889750563 2.6383892877407185 L5.783176581379834 1.9361908426138823 L5.783176581379834 1.9361908426138823 z"/>
<path fill="#000000" stroke="#000000" d="M4.967493643183225 0.7544667724210015 L4.967493643183225 0.7544667724210015 L5.44708108599377 1.295809037893383 L5.44708108599377 1.295809037893383 z"/>
<path fill="#000000" stroke="#000000" d="M5.447080334068383 1.295809824667445 L5.447080334068383 1.295809824667445 L5.78317816952641 1.9361909607063301 L5.78317816952641 1.9361909607063301 z"/>
<path fill="#000000" stroke="#000000" d="M3.696068901054516 0.08717289768179073 L3.696068901054516 0.08717289768179073 L4.372298851533369 0.343633028258353 L4.372298851533369 0.343633028258353 z"/>
<path fill="#000000" stroke="#000000" d="M4.372297812855519 0.34363316862615273 L4.372297812855519 0.34363316862615273 L4.967492511418301 0.7544663615820616 L4.967492511418301 0.7544663615820616 z"/>
<path fill="#000000" stroke="#000000" d="M2.2601805499100154 0.08717452891099864 L2.2601805499100154 0.08717452891099864 L2.978129949524058 -4.15706281315097e-7 L2.978129949524058 -4.15706281315097e-7 z"/>
<path fill="#000000" stroke="#000000" d="M2.9781299495240576 4.157062848161931e-7 L2.9781299495240576 4.157062848161931e-7 L3.696069494429357 0.08717416374384848 L3.696069494429357 0.08717416374384848 z"/>
<path fill="#000000" stroke="#000000" d="M0.9887584733763455 0.7544677883035708 L0.9887584733763455 0.7544677883035708 L1.5839599449640318 0.34362992026662637 L1.5839599449640318 0.34362992026662637 z"/>
<path fill="#000000" stroke="#000000" d="M1.5839602747628827 0.343630724490353 L1.5839602747628827 0.343630724490353 L2.260181482687468 0.08717390952648664 L2.260181482687468 0.08717390952648664 z"/>
<path fill="#000000" stroke="#000000" d="M0.5091706238093747 1.295810552646933 L0.5091706238093747 1.295810552646933 L0.9887580666199197 0.7544682871745514 L0.9887580666199197 0.7544682871745514 z"/>
<path fill="#000000" stroke="#000000" d="M-1.2772860723908163e-8 2.6383899968517732 L-1.2772860723908163e-8 2.6383899968517732 L0.17307686831734242 1.9361892281098354 L0.17307686831734242 1.9361892281098354 z"/>
<path fill="#000000" stroke="#000000" d="M0.1730763828259944 1.936188101561265 L0.1730763828259944 1.936188101561265 L0.5091720586088846 1.2958110804409297 L0.5091720586088846 1.2958110804409297 z"/>
<path fill="#000000" stroke="#000000" d="M1.7763568394002505e-15 3.36161 L1.7763568394002505e-15 3.36161 L1.7763568394002505e-15 2.63839 L1.7763568394002505e-15 2.63839 z"/>
<path fill="#000000" stroke="#000000" d="M0.5091720586088829 4.70418891955907 L0.5091720586088829 4.70418891955907 L0.17307638282599302 4.063811898438735 L0.17307638282599302 4.063811898438735 z"/>
<path fill="#000000" stroke="#000000" d="M0.17307686831734165 4.063810771890164 L0.17307686831734165 4.063810771890164 L-1.277286154942208e-8 3.3616100031482263 L-1.277286154942208e-8 3.3616100031482263 z"/>
<path fill="#000000" stroke="#000000" d="M0.9887580666199177 5.245531712825449 L0.9887580666199177 5.245531712825449 L0.5091706238093727 4.704189447353068 L0.5091706238093727 4.704189447353068 z"/>
<path fill="#000000" stroke="#000000" d="M1.5839602747628814 5.6563692755096495 L1.5839602747628814 5.6563692755096495 L2.2601814826874667 5.912826090473516 L2.2601814826874667 5.912826090473516 z"/>
<path fill="#000000" stroke="#000000" d="M1.58395994496403 5.656370079733375 L1.58395994496403 5.656370079733375 L0.9887584733763436 5.245532211696431 L0.9887584733763436 5.245532211696431 z"/>
<path fill="#000000" stroke="#000000" d="M0.98876 5.24553 L1.58396 5.65637 L2.26018 5.91283 L2.97813 6 L3.69607 5.91283 L4.3723 5.65637 L4.96749 5.24553 L5.44708 4.70419 L5.78318 4.06381 L5.95625 3.36161 L5.95625 2.63839 L5.78318 1.93619 L5.44708 1.29581 L4.96749 0.75447 L4.3723 0.34363 L3.69607 0.08717 L2.97813 0 L2.26018 0.08717 L1.58396 0.34363 L0.98876 0.75447 L0.50917 1.29581 L0.17308 1.93619 L0 2.63839 L0 3.36161 L0.17308 4.06381 L0.50917 4.70419 z"/>
<path fill="#000000" stroke="#000000" d="M2.26634 4.5987 L1.67762 4.17098 L1.31378 3.54078 L1.23771 2.81708 L1.46258 2.125 L1.9495 1.58422 L2.61428 1.28824 L3.34197 1.28824 L4.00675 1.58422 L4.49367 2.125 L4.71854 2.81708 L4.64248 3.54078 L4.27863 4.17098 L3.68992 4.5987 L2.97813 4.75 z"/>
<path fill="#000000" stroke="#000000" d="M3.689920742979312 4.5987034954434645 L3.689920742979312 4.5987034954434645 L2.9781298498232767 4.74999929347394 L2.9781298498232767 4.74999929347394 z"/>
<path fill="#000000" stroke="#000000" d="M2.26633895666724 4.598704908495586 L2.26633895666724 4.598704908495586 L2.978129849823276 4.750000706526062 L2.978129849823276 4.750000706526062 z"/>
<path fill="#000000" stroke="#000000" d="M4.64247551115459 3.5407795282037564 L4.64247551115459 3.5407795282037564 L4.718539336113258 2.8170799302227536 L4.718539336113258 2.8170799302227536 z"/>
<path fill="#000000" stroke="#000000" d="M4.278629384136931 4.170979644431258 L4.278629384136931 4.170979644431258 L4.64247651450763 3.540777987649853 L4.64247651450763 3.540777987649853 z"/>
<path fill="#000000" stroke="#000000" d="M4.278629314949488 4.170979057108884 L4.278629314949488 4.170979057108884 L3.689920675796804 4.5987009301544814 L3.689920675796804 4.5987009301544814 z"/>
<path fill="#000000" stroke="#000000" d="M4.006750243866136 1.5842197804219447 L4.006750243866136 1.5842197804219447 L4.493670519348825 2.124999532376217 L4.493670519348825 2.124999532376217 z"/>
<path fill="#000000" stroke="#000000" d="M4.493670850599018 2.124999723623586 L4.493670850599018 2.124999723623586 L4.718541262635051 2.8170795897449437 L4.718541262635051 2.8170795897449437 z"/>
<path fill="#000000" stroke="#000000" d="M3.341969681747503 1.2882407148068216 L3.341969681747503 1.2882407148068216 L4.006750008452716 1.584219981014888 L4.006750008452716 1.584219981014888 z"/>
<path fill="#000000" stroke="#000000" d="M1.9495004964138993 1.584221114963891 L1.9495004964138993 1.584221114963891 L2.614280823119112 1.2882418487558245 L2.614280823119112 1.2882418487558245 z"/>
<path fill="#000000" stroke="#000000" d="M2.61428 1.2882417440414446 L2.61428 1.2882417440414446 L3.34197 1.2882417440414446 L3.34197 1.2882417440414446 z"/>
<path fill="#000000" stroke="#000000" d="M1.2377114977057493 2.817080486634166 L1.2377114977057493 2.817080486634166 L1.4625819097417827 2.1250006205128087 L1.4625819097417827 2.1250006205128087 z"/>
<path fill="#000000" stroke="#000000" d="M1.4625811660278607 2.125001049896201 L1.4625811660278607 2.125001049896201 L1.9495014415105496 1.5842212979419281 L1.9495014415105496 1.5842212979419281 z"/>
<path fill="#000000" stroke="#000000" d="M1.6776229046813234 4.1709783229812984 L1.6776229046813234 4.1709783229812984 L1.3137782743109763 3.5407809963271153 L1.3137782743109763 3.5407809963271153 z"/>
<path fill="#000000" stroke="#000000" d="M1.3137776165209727 3.5407802505135164 L1.3137776165209727 3.5407802505135164 L1.2377136823005008 2.8170796129749665 L1.2377136823005008 2.8170796129749665 z"/>
<path fill="#000000" stroke="#000000" d="M1.677621739406938 4.170977605911794 L1.677621739406938 4.170977605911794 L2.266336923644487 4.598704234240008 L2.266336923644487 4.598704234240008 z"/>
<path fill="#000000" stroke="#000000" d="M1.67762 4.17098 L2.26634 4.5987 L2.97813 4.75 L3.68992 4.5987 L4.27863 4.17098 L4.64248 3.54078 L4.71854 2.81708 L4.49367 2.125 L4.00675 1.58422 L3.34197 1.28824 L2.61428 1.28824 L1.9495 1.58422 L1.46258 2.125 L1.23771 2.81708 L1.31378 3.54078 z"/>
</svg>